<?xml version="1.0" standalone="no"?><!DOCTYPE svg PUBLIC "-//W3C//DTD SVG 1.1//EN" "http://www.w3.org/Graphics/SVG/1.1/DTD/svg11.dtd"><svg t="1545807897354" class="icon" style="" viewBox="0 0 1024 1024" version="1.1" xmlns="http://www.w3.org/2000/svg" p-id="10161" xmlns:xlink="http://www.w3.org/1999/xlink" width="200" height="200"><defs><style type="text/css"></style></defs><path d="M506.5 123.1C291.2 123.1 116 298.3 116 513.6s175.2 390.5 390.5 390.5S897 729 897 513.6 721.9 123.1 506.5 123.1z m233.2 431.4H540.1v199.6c0 14.3-11.7 26-26 26s-26-11.7-26-26V554.5H288.4c-14.3 0-26-11.7-26-26s11.7-26 26-26H488V302.9c0-14.3 11.7-26 26-26s26 11.7 26 26v199.6h199.6c14.3 0 26 11.7 26 26 0.1 14.3-11.6 26-25.9 26z" fill="#FFFFFF" p-id="10162"></path><path d="M506.5 79.7c-239.3 0-433.9 194.6-433.9 433.9s194.6 433.9 433.9 433.9c239.3 0 433.9-194.6 433.9-433.9S745.8 79.7 506.5 79.7z m0 824.5C291.2 904.2 116 729 116 513.6s175.2-390.5 390.5-390.5S897 298.3 897 513.6 721.9 904.2 506.5 904.2z" fill="" p-id="10163"></path><path d="M739.7 502.4H540.1V302.9c0-14.3-11.7-26-26-26s-26 11.7-26 26v199.6H288.4c-14.3 0-26 11.7-26 26s11.7 26 26 26H488v199.6c0 14.3 11.7 26 26 26s26-11.7 26-26V554.5h199.6c14.3 0 26-11.7 26-26 0.1-14.3-11.6-26.1-25.9-26.1z" fill="" p-id="10164"></path></svg>