<?xml version="1.0" standalone="no"?><!DOCTYPE svg PUBLIC "-//W3C//DTD SVG 1.1//EN" "http://www.w3.org/Graphics/SVG/1.1/DTD/svg11.dtd"><svg t="1545806912838" class="icon" style="" viewBox="0 0 1024 1024" version="1.1" xmlns="http://www.w3.org/2000/svg" p-id="3234" xmlns:xlink="http://www.w3.org/1999/xlink" width="200" height="200"><defs><style type="text/css"></style></defs><path d="M914.3 1024H109.7C49.2 1024 0 974.8 0 914.3V109.7C0 49.2 49.2 0 109.7 0h422.9v73.1H109.7c-20.2 0-36.6 16.4-36.6 36.6v804.6c0 20.2 16.4 36.6 36.6 36.6h804.6c20.2 0 36.6-16.4 36.6-36.6V570.7h73.1v343.6c0 60.5-49.2 109.7-109.7 109.7z" fill="#838383" p-id="3235"></path><path d="M413.846 504.394L827.57 90.67l103.449 103.449-413.724 413.724zM859.45 58.774l51.688-51.689 103.449 103.449-51.69 51.689zM478.7 643.1l-130 25.1 26.5-128.6z" fill="#838383" p-id="3236"></path></svg>