<?xml version="1.0" standalone="no"?><!DOCTYPE svg PUBLIC "-//W3C//DTD SVG 1.1//EN" "http://www.w3.org/Graphics/SVG/1.1/DTD/svg11.dtd"><svg t="1545806809590" class="icon" style="" viewBox="0 0 1024 1024" version="1.1" xmlns="http://www.w3.org/2000/svg" p-id="1581" xmlns:xlink="http://www.w3.org/1999/xlink" width="200" height="200"><defs><style type="text/css"></style></defs><path d="M671.5 827h168c12.7 0 23 10.3 23 23s-10.3 23-23 23H671.5c-12.7 0-23-10.3-23-23s10.3-23 23-23z" fill="" p-id="1582"></path><path d="M778.5 766v168c0 12.7-10.3 23-23 23s-23-10.3-23-23V766c0-12.7 10.3-23 23-23s23 10.3 23 23zM322.5 374h387c12.7 0 23 10.3 23 23s-10.3 23-23 23H322.5c-12.7 0-23-10.3-23-23s10.3-23 23-23zM339 213h191c21.8 0 39.5 17.7 39.5 39.5S551.8 292 530 292h-191c-21.8 0-39.5-17.7-39.5-39.5s17.7-39.5 39.5-39.5zM322.5 503h387c12.7 0 23 10.3 23 23s-10.3 23-23 23H322.5c-12.7 0-23-10.3-23-23s10.3-23 23-23zM322.5 632h387c12.7 0 23 10.3 23 23s-10.3 23-23 23H322.5c-12.7 0-23-10.3-23-23s10.3-23 23-23zM322.5 760h276c12.7 0 23 10.3 23 23s-10.3 23-23 23H322.5c-12.7 0-23-10.3-23-23s10.3-23 23-23z" fill="" p-id="1583"></path><path d="M631.3 955H221c-29 0-52.5-23.6-52.5-52.7V112.7c0-29.1 23.5-52.7 52.5-52.7h423c5.7 0 11.2 2.1 15.5 6l196.6 178.5c4.8 4.4 7.5 10.5 7.5 17v459.7c0 12.7-10.3 23-23 23s-23-10.3-23-23V271.7L635.1 106H221c-3.6 0-6.5 3-6.5 6.7v789.7c0 3.7 2.9 6.7 6.5 6.7h410.4c12.7 0 23 10.3 23 23S644 955 631.3 955z" fill="" p-id="1584"></path><path d="M850.5 301H650.5c-28.7 0-52-23.3-52-52V67.4h46V249c0 3.3 2.7 6 6 6h200v46z" fill="" p-id="1585"></path></svg>